<svg height="512" viewBox="0 0 64 64" width="512" xmlns="http://www.w3.org/2000/svg"><g id="Layer_10" data-name="Layer 10"><rect fill="#c7e2fb" height="12" rx="2" width="8" x="2" y="22"/><path d="m4 34h4a2 2 0 0 0 2-2v-2h-8v2a2 2 0 0 0 2 2z" fill="#a0a8b2"/><path d="m22 38v-8a6 6 0 0 1 6-6h8a6 6 0 0 1 6 6v8z" fill="#4472b0"/><g fill="#fddfb1"><path d="m29 24v1a3 3 0 0 0 3 3 3 3 0 0 0 3-3v-1z"/><path d="m37 15v4a5 5 0 0 1 -5 5 5 5 0 0 1 -5-5v-4h1.76a3.61 3.61 0 0 0 3.24-2 3.61 3.61 0 0 0 3.24 2z"/><path d="m27 19v-3h-2a2 2 0 0 0 0 4h2.1a5.47 5.47 0 0 1 -.1-1z"/><path d="m39 16h-2v3a5.47 5.47 0 0 1 -.1 1h2.1a2 2 0 0 0 0-4z"/></g><path d="m32 6a7 7 0 0 0 -7 7v3h2v-1h1.76a3.61 3.61 0 0 0 3.24-2 3.61 3.61 0 0 0 3.24 2h1.76v1h2v-3a7 7 0 0 0 -7-7z" fill="#cda57d"/><path d="m8 42h48v18h-48z" fill="#c18e5c"/><path d="m2 38h60v4h-60z" fill="#cda57d"/><path d="m56 42h4v20h-4z" fill="#cda57d"/><path d="m4 42h4v20h-4z" fill="#cda57d"/><path d="m37 29h2v9h-2z" fill="#698ec0"/><path d="m25 29h2v9h-2z" fill="#698ec0"/><path d="m50 2h12v8h-12z" fill="#f7d881"/><path d="m50 2 6 4 6-4z" fill="#f2c351"/><path d="m2 10h16a0 0 0 0 1 0 0v2a2 2 0 0 1 -2 2h-12a2 2 0 0 1 -2-2v-2a0 0 0 0 1 0 0z" fill="#88929f"/><path d="m4 10v-6a2 2 0 0 1 2-2h8a2 2 0 0 1 2 2v6z" fill="#c1c8d1"/><path d="m52 22h10v12h-10z" fill="#c7e2fb"/><path d="m55 25h4v2h-4z" fill="#fff"/><path d="m55 29h4v2h-4z" fill="#fff"/><path d="m41.71 9.71-1.42-1.42 4-4a1 1 0 0 1 .71-.29h5v2h-4.59z" fill="#c1c8d1"/><path d="m22.29 9.71-3.7-3.71h-2.59v-2h3a1 1 0 0 1 .71.29l4 4z" fill="#c1c8d1"/><path d="m17 28h-7v-2h6.59l4.7-4.71 1.42 1.42-5 5a1 1 0 0 1 -.71.29z" fill="#c1c8d1"/><path d="m52 28h-4a1 1 0 0 1 -.71-.29l-5-5 1.42-1.42 4.7 4.71h3.59z" fill="#c1c8d1"/></g></svg>